<mxfile host="app.diagrams.net" modified="2021-03-30T14:47:32.095Z" agent="5.0 (Windows NT 10.0; Win64; x64) AppleWebKit/537.36 (KHTML, like Gecko) Chrome/89.0.4389.90 Safari/537.36" etag="sBjUfLPYYZCCRdqVBPYI" version="14.5.3" type="github">
  <diagram id="C5RBs43oDa-KdzZeNtuy" name="Page-1">
    <mxGraphModel dx="782" dy="380" grid="1" gridSize="10" guides="1" tooltips="1" connect="1" arrows="1" fold="1" page="1" pageScale="1" pageWidth="827" pageHeight="1169" math="0" shadow="0">
      <root>
        <mxCell id="WIyWlLk6GJQsqaUBKTNV-0" />
        <mxCell id="WIyWlLk6GJQsqaUBKTNV-1" parent="WIyWlLk6GJQsqaUBKTNV-0" />
        <mxCell id="WIyWlLk6GJQsqaUBKTNV-2" value="" style="rounded=0;html=1;jettySize=auto;orthogonalLoop=1;fontSize=11;endArrow=block;endFill=0;endSize=8;strokeWidth=1;shadow=0;labelBackgroundColor=none;edgeStyle=orthogonalEdgeStyle;" parent="WIyWlLk6GJQsqaUBKTNV-1" source="WIyWlLk6GJQsqaUBKTNV-3" target="WIyWlLk6GJQsqaUBKTNV-6" edge="1">
          <mxGeometry relative="1" as="geometry" />
        </mxCell>
        <mxCell id="WIyWlLk6GJQsqaUBKTNV-3" value="SAST/DAST Scan" style="rounded=1;whiteSpace=wrap;html=1;fontSize=12;glass=0;strokeWidth=1;shadow=0;" parent="WIyWlLk6GJQsqaUBKTNV-1" vertex="1">
          <mxGeometry x="330" y="80" width="120" height="40" as="geometry" />
        </mxCell>
        <mxCell id="WIyWlLk6GJQsqaUBKTNV-4" value="Yes" style="rounded=0;html=1;jettySize=auto;orthogonalLoop=1;fontSize=11;endArrow=block;endFill=0;endSize=8;strokeWidth=1;shadow=0;labelBackgroundColor=none;edgeStyle=orthogonalEdgeStyle;entryX=0.5;entryY=0;entryDx=0;entryDy=0;" parent="WIyWlLk6GJQsqaUBKTNV-1" source="WIyWlLk6GJQsqaUBKTNV-6" target="c7tJcLB2jK3TsVSm9SJX-0" edge="1">
          <mxGeometry y="20" relative="1" as="geometry">
            <mxPoint as="offset" />
            <mxPoint x="220" y="290" as="targetPoint" />
          </mxGeometry>
        </mxCell>
        <mxCell id="WIyWlLk6GJQsqaUBKTNV-5" value="No" style="edgeStyle=orthogonalEdgeStyle;rounded=0;html=1;jettySize=auto;orthogonalLoop=1;fontSize=11;endArrow=block;endFill=0;endSize=8;strokeWidth=1;shadow=0;labelBackgroundColor=none;" parent="WIyWlLk6GJQsqaUBKTNV-1" source="WIyWlLk6GJQsqaUBKTNV-6" target="WIyWlLk6GJQsqaUBKTNV-7" edge="1">
          <mxGeometry y="10" relative="1" as="geometry">
            <mxPoint as="offset" />
          </mxGeometry>
        </mxCell>
        <mxCell id="WIyWlLk6GJQsqaUBKTNV-6" value="scan successfull" style="rhombus;whiteSpace=wrap;html=1;shadow=0;fontFamily=Helvetica;fontSize=12;align=center;strokeWidth=1;spacing=6;spacingTop=-4;" parent="WIyWlLk6GJQsqaUBKTNV-1" vertex="1">
          <mxGeometry x="340" y="170" width="100" height="80" as="geometry" />
        </mxCell>
        <mxCell id="WIyWlLk6GJQsqaUBKTNV-7" value="" style="rounded=1;whiteSpace=wrap;html=1;fontSize=12;glass=0;strokeWidth=1;shadow=0;" parent="WIyWlLk6GJQsqaUBKTNV-1" vertex="1">
          <mxGeometry x="550" y="190" width="120" height="40" as="geometry" />
        </mxCell>
        <mxCell id="c7tJcLB2jK3TsVSm9SJX-3" value="" style="edgeStyle=orthogonalEdgeStyle;rounded=0;orthogonalLoop=1;jettySize=auto;html=1;" edge="1" parent="WIyWlLk6GJQsqaUBKTNV-1" source="c7tJcLB2jK3TsVSm9SJX-0">
          <mxGeometry relative="1" as="geometry">
            <mxPoint x="390" y="400" as="targetPoint" />
          </mxGeometry>
        </mxCell>
        <mxCell id="c7tJcLB2jK3TsVSm9SJX-0" value="Invoke Data Collector class(Exposed as an API)" style="rounded=1;whiteSpace=wrap;html=1;" vertex="1" parent="WIyWlLk6GJQsqaUBKTNV-1">
          <mxGeometry x="330" y="290" width="120" height="80" as="geometry" />
        </mxCell>
        <mxCell id="c7tJcLB2jK3TsVSm9SJX-11" value="" style="edgeStyle=orthogonalEdgeStyle;rounded=0;orthogonalLoop=1;jettySize=auto;html=1;fontSize=11;" edge="1" parent="WIyWlLk6GJQsqaUBKTNV-1" source="c7tJcLB2jK3TsVSm9SJX-5" target="c7tJcLB2jK3TsVSm9SJX-8">
          <mxGeometry relative="1" as="geometry" />
        </mxCell>
        <mxCell id="c7tJcLB2jK3TsVSm9SJX-5" value="consume the exposed API of Devops tool" style="rounded=1;whiteSpace=wrap;html=1;" vertex="1" parent="WIyWlLk6GJQsqaUBKTNV-1">
          <mxGeometry x="90" y="430" width="120" height="70" as="geometry" />
        </mxCell>
        <mxCell id="c7tJcLB2jK3TsVSm9SJX-6" value="caller method(consume using axios pckg)" style="text;html=1;strokeColor=none;fillColor=none;align=center;verticalAlign=middle;whiteSpace=wrap;rounded=0;fontSize=11;" vertex="1" parent="WIyWlLk6GJQsqaUBKTNV-1">
          <mxGeometry x="100" y="520" width="100" height="20" as="geometry" />
        </mxCell>
        <mxCell id="c7tJcLB2jK3TsVSm9SJX-7" value="using Express.js" style="text;html=1;strokeColor=none;fillColor=none;align=center;verticalAlign=middle;whiteSpace=wrap;rounded=0;fontSize=11;" vertex="1" parent="WIyWlLk6GJQsqaUBKTNV-1">
          <mxGeometry x="250" y="310" width="50" height="30" as="geometry" />
        </mxCell>
        <mxCell id="c7tJcLB2jK3TsVSm9SJX-17" value="" style="edgeStyle=orthogonalEdgeStyle;rounded=0;orthogonalLoop=1;jettySize=auto;html=1;fontSize=10;" edge="1" parent="WIyWlLk6GJQsqaUBKTNV-1" source="c7tJcLB2jK3TsVSm9SJX-8" target="c7tJcLB2jK3TsVSm9SJX-15">
          <mxGeometry relative="1" as="geometry" />
        </mxCell>
        <mxCell id="c7tJcLB2jK3TsVSm9SJX-8" value="Process the data metric (Data filtration and manipulation)" style="rounded=1;whiteSpace=wrap;html=1;fontSize=11;" vertex="1" parent="WIyWlLk6GJQsqaUBKTNV-1">
          <mxGeometry x="300" y="430" width="120" height="70" as="geometry" />
        </mxCell>
        <mxCell id="c7tJcLB2jK3TsVSm9SJX-13" value="using mongoose pckg" style="text;html=1;strokeColor=none;fillColor=none;align=center;verticalAlign=middle;whiteSpace=wrap;rounded=0;fontSize=10;" vertex="1" parent="WIyWlLk6GJQsqaUBKTNV-1">
          <mxGeometry x="630" y="530" width="50" height="40" as="geometry" />
        </mxCell>
        <mxCell id="c7tJcLB2jK3TsVSm9SJX-14" value="Store the result in MongoDB(database)" style="rounded=1;whiteSpace=wrap;html=1;fontSize=11;" vertex="1" parent="WIyWlLk6GJQsqaUBKTNV-1">
          <mxGeometry x="620" y="430" width="120" height="70" as="geometry" />
        </mxCell>
        <mxCell id="c7tJcLB2jK3TsVSm9SJX-18" value="No" style="edgeStyle=orthogonalEdgeStyle;rounded=0;orthogonalLoop=1;jettySize=auto;html=1;fontSize=10;" edge="1" parent="WIyWlLk6GJQsqaUBKTNV-1" source="c7tJcLB2jK3TsVSm9SJX-15" target="c7tJcLB2jK3TsVSm9SJX-14">
          <mxGeometry relative="1" as="geometry" />
        </mxCell>
        <mxCell id="c7tJcLB2jK3TsVSm9SJX-20" value="yes" style="edgeStyle=orthogonalEdgeStyle;rounded=0;orthogonalLoop=1;jettySize=auto;html=1;fontSize=10;" edge="1" parent="WIyWlLk6GJQsqaUBKTNV-1" source="c7tJcLB2jK3TsVSm9SJX-15" target="c7tJcLB2jK3TsVSm9SJX-19">
          <mxGeometry relative="1" as="geometry" />
        </mxCell>
        <mxCell id="c7tJcLB2jK3TsVSm9SJX-15" value="check data is present in Database" style="rhombus;whiteSpace=wrap;html=1;fontSize=10;" vertex="1" parent="WIyWlLk6GJQsqaUBKTNV-1">
          <mxGeometry x="480" y="415" width="90" height="100" as="geometry" />
        </mxCell>
        <mxCell id="c7tJcLB2jK3TsVSm9SJX-19" value="Fetch the data from Database" style="rounded=1;whiteSpace=wrap;html=1;fontSize=10;" vertex="1" parent="WIyWlLk6GJQsqaUBKTNV-1">
          <mxGeometry x="465" y="580" width="120" height="60" as="geometry" />
        </mxCell>
        <mxCell id="c7tJcLB2jK3TsVSm9SJX-21" value="Process the data and send it as a API-response" style="rounded=1;whiteSpace=wrap;html=1;fontSize=10;" vertex="1" parent="WIyWlLk6GJQsqaUBKTNV-1">
          <mxGeometry x="595" y="710" width="120" height="60" as="geometry" />
        </mxCell>
        <mxCell id="c7tJcLB2jK3TsVSm9SJX-22" value="res.body" style="text;html=1;strokeColor=none;fillColor=none;align=center;verticalAlign=middle;whiteSpace=wrap;rounded=0;fontSize=10;" vertex="1" parent="WIyWlLk6GJQsqaUBKTNV-1">
          <mxGeometry x="630" y="780" width="45" height="20" as="geometry" />
        </mxCell>
        <mxCell id="c7tJcLB2jK3TsVSm9SJX-26" value="" style="edgeStyle=segmentEdgeStyle;endArrow=classic;html=1;fontSize=10;entryX=0.431;entryY=0.05;entryDx=0;entryDy=0;entryPerimeter=0;exitX=0.5;exitY=1;exitDx=0;exitDy=0;" edge="1" parent="WIyWlLk6GJQsqaUBKTNV-1" source="c7tJcLB2jK3TsVSm9SJX-19" target="c7tJcLB2jK3TsVSm9SJX-21">
          <mxGeometry width="50" height="50" relative="1" as="geometry">
            <mxPoint x="500" y="680" as="sourcePoint" />
            <mxPoint x="430" y="640" as="targetPoint" />
            <Array as="points">
              <mxPoint x="530" y="640" />
              <mxPoint x="530" y="680" />
              <mxPoint x="647" y="680" />
            </Array>
          </mxGeometry>
        </mxCell>
        <mxCell id="c7tJcLB2jK3TsVSm9SJX-27" value="" style="edgeStyle=elbowEdgeStyle;elbow=vertical;endArrow=classic;html=1;fontSize=10;exitX=0.75;exitY=1;exitDx=0;exitDy=0;entryX=0.75;entryY=0;entryDx=0;entryDy=0;" edge="1" parent="WIyWlLk6GJQsqaUBKTNV-1" source="c7tJcLB2jK3TsVSm9SJX-14" target="c7tJcLB2jK3TsVSm9SJX-21">
          <mxGeometry width="50" height="50" relative="1" as="geometry">
            <mxPoint x="380" y="650" as="sourcePoint" />
            <mxPoint x="680" y="700" as="targetPoint" />
          </mxGeometry>
        </mxCell>
        <mxCell id="c7tJcLB2jK3TsVSm9SJX-29" value="" style="endArrow=none;dashed=1;html=1;dashPattern=1 3;strokeWidth=2;fontSize=10;" edge="1" parent="WIyWlLk6GJQsqaUBKTNV-1">
          <mxGeometry width="50" height="50" relative="1" as="geometry">
            <mxPoint x="80" y="400" as="sourcePoint" />
            <mxPoint x="760" y="400" as="targetPoint" />
          </mxGeometry>
        </mxCell>
        <mxCell id="c7tJcLB2jK3TsVSm9SJX-30" value="" style="endArrow=none;dashed=1;html=1;dashPattern=1 3;strokeWidth=2;fontSize=10;" edge="1" parent="WIyWlLk6GJQsqaUBKTNV-1">
          <mxGeometry width="50" height="50" relative="1" as="geometry">
            <mxPoint x="80" y="840" as="sourcePoint" />
            <mxPoint x="80" y="400" as="targetPoint" />
          </mxGeometry>
        </mxCell>
        <mxCell id="c7tJcLB2jK3TsVSm9SJX-31" value="" style="endArrow=none;dashed=1;html=1;dashPattern=1 3;strokeWidth=2;fontSize=10;" edge="1" parent="WIyWlLk6GJQsqaUBKTNV-1">
          <mxGeometry width="50" height="50" relative="1" as="geometry">
            <mxPoint x="80" y="840" as="sourcePoint" />
            <mxPoint x="760" y="840" as="targetPoint" />
          </mxGeometry>
        </mxCell>
        <mxCell id="c7tJcLB2jK3TsVSm9SJX-32" value="" style="endArrow=none;dashed=1;html=1;dashPattern=1 3;strokeWidth=2;fontSize=10;" edge="1" parent="WIyWlLk6GJQsqaUBKTNV-1">
          <mxGeometry width="50" height="50" relative="1" as="geometry">
            <mxPoint x="760" y="840" as="sourcePoint" />
            <mxPoint x="760" y="400" as="targetPoint" />
          </mxGeometry>
        </mxCell>
        <mxCell id="c7tJcLB2jK3TsVSm9SJX-34" value="&lt;h1&gt;Data Collector Class&lt;/h1&gt;" style="text;html=1;strokeColor=none;fillColor=none;spacing=5;spacingTop=-20;whiteSpace=wrap;overflow=hidden;rounded=0;fontSize=10;" vertex="1" parent="WIyWlLk6GJQsqaUBKTNV-1">
          <mxGeometry x="510" y="360" width="210" height="30" as="geometry" />
        </mxCell>
      </root>
    </mxGraphModel>
  </diagram>
</mxfile>
